<?xml version="1.0" encoding="utf-8"?>
<!-- Generator: Adobe Illustrator 23.0.1, SVG Export Plug-In . SVG Version: 6.00 Build 0)  -->
<svg version="1.1" id="Capa_1" xmlns="http://www.w3.org/2000/svg" xmlns:xlink="http://www.w3.org/1999/xlink" x="0px" y="0px"
	 viewBox="0 0 60 15" style="enable-background:new 0 0 60 15;" xml:space="preserve">
<style type="text/css">
	.st0{fill:none;stroke:#FF5E87;stroke-linecap:round;stroke-miterlimit:10;}
	.st1{fill:none;stroke:#70B4F0;stroke-linecap:round;stroke-miterlimit:10;}
	.st2{fill:none;stroke:#7CD185;stroke-miterlimit:10;}
	.st3{fill:#727272;}
</style>
<g id="reload">
	<g>
		<path class="st0" d="M32.8,6.1c0.7-2.2,2.9-3.3,5.1-3.1c2.5,0.3,4.5,2.6,4.3,5.1c-0.2,2.2-2,4.1-4.3,4.3c-1.7,0.1-3.4-0.9-4.3-2.6
			"/>
		<polyline class="st0" points="32.8,2.5 32.8,6.1 35.5,6.1 		"/>
	</g>
</g>
<g id="pause">
	<g>
		<line class="st1" x1="25.1" y1="2.8" x2="25.1" y2="12.1"/>
		<line class="st1" x1="19.9" y1="2.8" x2="19.9" y2="12.1"/>
	</g>
</g>
<g id="play">
	<path class="st2" d="M4.9,2.4l5.9,4.2c0.3,0.2,0.3,0.6,0,0.8l-5.9,5C4.6,12.7,4,12.5,4,12V2.8C4,2.4,4.5,2.1,4.9,2.4z"/>
</g>
<circle class="st3" cx="52.5" cy="7.4" r="1.5"/>
<circle class="st3" cx="48.5" cy="7.4" r="1.5"/>
<circle class="st3" cx="56.5" cy="7.4" r="1.5"/>
</svg>
